<svg width="25" height="25" viewBox="0 0 25 25" fill="none" xmlns="http://www.w3.org/2000/svg">
<path fill-rule="evenodd" clip-rule="evenodd" d="M12.5 25C5.5965 25 0 19.4035 0 12.5C0 5.5965 5.5965 0 12.5 0C19.4035 0 25 5.5965 25 12.5C25 19.4035 19.4035 25 12.5 25Z" fill="#231F20"/>
<path fill-rule="evenodd" clip-rule="evenodd" d="M13.9549 13.3629L13.9984 13.3404C14.2634 13.2064 14.5184 13.1324 14.7149 13.1324C14.8734 13.1324 14.9949 13.1789 15.0759 13.2704C15.1674 13.3734 15.2019 13.5294 15.1774 13.7344C15.0274 15.0024 13.7724 16.2009 12.6694 16.7784C11.3959 17.4449 9.97539 17.5919 9.69089 17.6154C9.67439 17.6164 9.65789 17.6174 9.63939 17.6174C9.66389 17.5784 11.5329 14.5574 13.9544 13.3624M16.8654 6.14845C16.4094 7.64445 15.2859 8.60345 14.4264 9.21845C14.1984 9.38145 14.4234 9.50345 14.4294 9.73445C14.4369 10.0219 13.9199 10.3789 13.1319 11.2419C14.6369 8.32445 16.8654 6.14845 16.8654 6.14845ZM9.44739 18.0074C9.44989 18.0074 9.50239 18.0059 9.59489 18.0009C10.0584 17.9734 11.5454 17.8369 13.0819 17.1624C13.8904 16.8074 16.1909 15.4674 16.1909 13.6669C16.1909 12.9849 15.7769 12.5944 15.0724 12.5944C13.9994 12.5944 12.7019 13.4614 11.2524 14.9724C11.2154 15.0194 11.1474 14.9864 11.3344 14.6814C11.6964 14.0909 12.5179 12.5834 14.3159 10.8084C15.3669 9.77095 14.8319 9.37345 14.8319 9.37345C14.8319 9.37345 15.8934 8.88495 16.6924 7.84245C17.1709 7.21845 17.7774 5.99445 17.5129 5.66095C17.2939 5.38445 16.8454 5.52445 15.8424 6.41095C14.5949 7.51245 12.7044 10.7219 11.6779 12.6469C11.4249 13.1219 9.94939 15.6809 8.89939 17.4969C8.68848 17.4223 8.48931 17.3179 8.30789 17.1869L8.17939 17.4134C8.28489 17.5239 8.48189 17.6704 8.73039 17.7894C8.22189 18.6684 7.84739 19.3144 7.82489 19.3544C7.75489 19.4749 7.81939 19.5274 7.89689 19.4929L8.17339 19.3724C8.88089 19.0654 9.02839 18.9374 9.07989 18.6424C9.17289 18.1024 9.44689 18.0074 9.44739 18.0074Z" fill="white"/>
</svg>
