<svg width="40" height="40" viewBox="0 0 40 40" fill="none" xmlns="http://www.w3.org/2000/svg">
<mask id="mask0_1_1787" style="mask-type:alpha" maskUnits="userSpaceOnUse" x="0" y="0" width="40" height="40">
<rect width="40" height="40" fill="#D9D9D9"/>
</mask>
<g mask="url(#mask0_1_1787)">
<path d="M19.9998 37.3716L14.3673 31.722H25.6494L19.9998 37.3716ZM6.77359 27.4999C6.0572 27.4999 5.44359 27.2445 4.93275 26.7337C4.42192 26.2228 4.1665 25.6092 4.1665 24.8928V8.44034C4.1665 7.72395 4.42192 7.11034 4.93275 6.5995C5.44359 6.08867 6.0572 5.83325 6.77359 5.83325H33.2261C33.9425 5.83325 34.5561 6.08867 35.0669 6.5995C35.5778 7.11034 35.8332 7.72395 35.8332 8.44034V24.8928C35.8332 25.6092 35.5778 26.2228 35.0669 26.7337C34.5561 27.2445 33.9425 27.4999 33.2261 27.4999H6.77359ZM6.77359 25.4058H33.2261C33.3544 25.4058 33.4721 25.3524 33.579 25.2458C33.6857 25.1388 33.739 25.0212 33.739 24.8928V8.44034C33.739 8.312 33.6857 8.19436 33.579 8.08742C33.4721 7.98075 33.3544 7.92742 33.2261 7.92742H6.77359C6.64525 7.92742 6.52762 7.98075 6.42067 8.08742C6.314 8.19436 6.26067 8.312 6.26067 8.44034V24.8928C6.26067 25.0212 6.314 25.1388 6.42067 25.2458C6.52762 25.3524 6.64525 25.4058 6.77359 25.4058ZM13.6044 23.0341H26.4123V20.4916H13.6044V23.0341ZM8.46359 17.9378H11.0061V15.3953H8.46359V17.9378ZM13.6044 17.9378H16.1473V15.3953H13.6044V17.9378ZM18.7286 17.9378H21.2711V15.3953H18.7286V17.9378ZM23.8694 17.9378H26.4123V15.3953H23.8694V17.9378ZM28.9936 17.9378H31.5361V15.3953H28.9936V17.9378ZM8.46359 12.8312H11.0061V10.2883H8.46359V12.8312ZM13.6044 12.8312H16.1473V10.2883H13.6044V12.8312ZM18.7286 12.8312H21.2711V10.2883H18.7286V12.8312ZM23.8694 12.8312H26.4123V10.2883H23.8694V12.8312ZM28.9936 12.8312H31.5361V10.2883H28.9936V12.8312Z" fill="#959595"/>
</g>
</svg>
