<svg width="40" height="40" viewBox="0 0 40 40" fill="none" xmlns="http://www.w3.org/2000/svg">
<mask id="mask0_1_1770" style="mask-type:alpha" maskUnits="userSpaceOnUse" x="0" y="0" width="40" height="40">
<rect width="40" height="40" fill="#D9D9D9"/>
</mask>
<g mask="url(#mask0_1_1770)">
<path d="M8.44058 34.1666C7.72419 34.1666 7.11058 33.9112 6.59975 33.4003C6.08891 32.8895 5.8335 32.2759 5.8335 31.5595V8.44034C5.8335 7.72395 6.08891 7.11034 6.59975 6.5995C7.11058 6.08867 7.72419 5.83325 8.44058 5.83325H31.5597C32.2761 5.83325 32.8897 6.08867 33.4006 6.5995C33.9114 7.11034 34.1668 7.72395 34.1668 8.44034V31.5595C34.1668 32.2759 33.9114 32.8895 33.4006 33.4003C32.8897 33.9112 32.2761 34.1666 31.5597 34.1666H8.44058ZM9.656 22.0191L16.5706 15.1045L23.4402 21.9745L30.3272 15.0874L32.0727 16.8333V8.44034C32.0727 8.29061 32.0246 8.1677 31.9285 8.07158C31.8324 7.97547 31.7095 7.92742 31.5597 7.92742H8.44058C8.29086 7.92742 8.16794 7.97547 8.07183 8.07158C7.97572 8.1677 7.92766 8.29061 7.92766 8.44034V20.2908L9.656 22.0191ZM8.44058 32.0724H31.5597C31.7095 32.0724 31.8324 32.0244 31.9285 31.9283C32.0246 31.8321 32.0727 31.7092 32.0727 31.5595V19.8074L30.3272 18.062L23.4402 24.9487L16.5706 18.0791L9.656 24.9828L7.92766 23.2649V31.5595C7.92766 31.7092 7.97572 31.8321 8.07183 31.9283C8.16794 32.0244 8.29086 32.0724 8.44058 32.0724ZM7.92766 32.0724V19.8074V21.9016V7.92742V32.0724Z" fill="#959595"/>
</g>
</svg>
