<svg width="24" height="25" viewBox="0 0 24 25" fill="none" xmlns="http://www.w3.org/2000/svg">
<mask id="mask0_1_1862" style="mask-type:alpha" maskUnits="userSpaceOnUse" x="0" y="0" width="24" height="25">
<rect y="0.364258" width="24" height="24" fill="#D9D9D9"/>
</mask>
<g mask="url(#mask0_1_1862)">
<path d="M15.7731 13.3373L14.6501 12.2143C14.8001 11.3862 14.5638 10.6416 13.9413 9.98057C13.319 9.31974 12.5552 9.06432 11.6501 9.21432L10.5271 8.09132C10.7527 7.98999 10.9842 7.91399 11.2213 7.86332C11.4585 7.81266 11.7181 7.78732 12.0001 7.78732C13.1347 7.78732 14.0979 8.18316 14.8896 8.97482C15.6812 9.76649 16.0771 10.7297 16.0771 11.8643C16.0771 12.1463 16.0517 12.4092 16.0011 12.6528C15.9504 12.8963 15.8744 13.1245 15.7731 13.3373ZM18.9538 16.4488L17.8501 15.4143C18.4834 14.931 19.0459 14.4018 19.5376 13.8268C20.0292 13.2518 20.4501 12.5977 20.8001 11.8643C19.9667 10.181 18.7709 8.84349 17.2126 7.85182C15.6542 6.86016 13.9167 6.36432 12.0001 6.36432C11.5167 6.36432 11.0417 6.39766 10.5751 6.46432C10.1084 6.53099 9.65007 6.63099 9.20007 6.76432L8.03482 5.59907C8.66682 5.34774 9.31233 5.16249 9.97132 5.04332C10.6303 4.92399 11.3066 4.86432 12.0001 4.86432C14.3436 4.86432 16.457 5.51049 18.3403 6.80282C20.2237 8.09515 21.5974 9.78232 22.4616 11.8643C22.0911 12.7578 21.6126 13.5918 21.0261 14.3663C20.4394 15.1407 19.7487 15.8348 18.9538 16.4488ZM19.7616 22.2336L15.7156 18.2181C15.2027 18.4079 14.6344 18.5631 14.0106 18.6836C13.3869 18.8041 12.7167 18.8643 12.0001 18.8643C9.65007 18.8643 7.53666 18.2182 5.65982 16.9258C3.78282 15.6335 2.40907 13.9463 1.53857 11.8643C1.90774 10.981 2.38466 10.157 2.96932 9.39232C3.55399 8.62749 4.19757 7.96432 4.90007 7.40282L2.13082 4.60282L3.18482 3.54907L20.8153 21.1796L19.7616 22.2336ZM5.95407 8.45657C5.42574 8.87707 4.91191 9.38257 4.41257 9.97307C3.91324 10.5634 3.50907 11.1938 3.20007 11.8643C4.03341 13.5477 5.22924 14.8852 6.78757 15.8768C8.34591 16.8685 10.0834 17.3643 12.0001 17.3643C12.4552 17.3643 12.9085 17.3258 13.3598 17.2488C13.811 17.172 14.1937 17.0926 14.5078 17.0106L13.2423 15.7143C13.0718 15.7835 12.8744 15.8386 12.6501 15.8796C12.4257 15.9207 12.2091 15.9413 12.0001 15.9413C10.8654 15.9413 9.90224 15.5455 9.11058 14.7538C8.31891 13.9622 7.92307 12.999 7.92307 11.8643C7.92307 11.6618 7.94366 11.45 7.98483 11.2288C8.02583 11.0077 8.08091 10.8054 8.15007 10.6221L5.95407 8.45657Z" fill="#111111"/>
</g>
</svg>
