<svg width="40" height="40" viewBox="0 0 40 40" fill="none" xmlns="http://www.w3.org/2000/svg">
<mask id="mask0_1_1790" style="mask-type:alpha" maskUnits="userSpaceOnUse" x="0" y="0" width="40" height="40">
<rect width="40" height="40" fill="#D9D9D9"/>
</mask>
<g mask="url(#mask0_1_1790)">
<path d="M6.77359 30.8334C6.0572 30.8334 5.44359 30.5755 4.93275 30.0597C4.42192 29.5441 4.1665 28.933 4.1665 28.2263V11.7738C4.1665 11.0574 4.42192 10.4438 4.93275 9.933C5.44359 9.42217 6.0572 9.16675 6.77359 9.16675H33.2261C33.9425 9.16675 34.5561 9.42217 35.0669 9.933C35.5778 10.4438 35.8332 11.0574 35.8332 11.7738V28.2263C35.8332 28.933 35.5778 29.5441 35.0669 30.0597C34.5561 30.5755 33.9425 30.8334 33.2261 30.8334H6.77359ZM6.77359 28.7392H33.2261C33.3544 28.7392 33.4721 28.6859 33.579 28.5792C33.6857 28.4723 33.739 28.3547 33.739 28.2263V11.7738C33.739 11.6455 33.6857 11.5279 33.579 11.4209C33.4721 11.3142 33.3544 11.2609 33.2261 11.2609H6.77359C6.64525 11.2609 6.52762 11.3142 6.42067 11.4209C6.314 11.5279 6.26067 11.6455 6.26067 11.7738V28.2263C6.26067 28.3547 6.314 28.4723 6.42067 28.5792C6.52762 28.6859 6.64525 28.7392 6.77359 28.7392ZM13.1194 26.3676H26.8803V23.8251H13.1194V26.3676ZM8.58734 21.2713H11.1303V18.7288H8.58734V21.2713ZM13.6665 21.2713H16.2094V18.7288H13.6665V21.2713ZM18.7286 21.2713H21.2711V18.7288H18.7286V21.2713ZM23.8073 21.2713H26.3503V18.7288H23.8073V21.2713ZM28.8694 21.2713H31.4123V18.7288H28.8694V21.2713ZM8.58734 16.1647H11.1303V13.6217H8.58734V16.1647ZM13.6665 16.1647H16.2094V13.6217H13.6665V16.1647ZM18.7286 16.1647H21.2711V13.6217H18.7286V16.1647ZM23.8073 16.1647H26.3503V13.6217H23.8073V16.1647ZM28.8694 16.1647H31.4123V13.6217H28.8694V16.1647Z" fill="#959595"/>
</g>
</svg>
