<svg width="55" height="23" viewBox="0 0 55 23" fill="none" xmlns="http://www.w3.org/2000/svg">
<path fill-rule="evenodd" clip-rule="evenodd" d="M17.6569 19.508C16.5448 19.508 15.6219 19.195 14.8881 18.5687C14.1543 17.9426 13.7876 16.7536 13.7876 15.0017V10.0575H11.3706V7.66029H13.7876V4.1913L16.5335 4.16821V7.66029H20.0283V10.0575H16.5335V15.1286C16.5335 16.504 17.0972 17.1915 18.2243 17.1915H20.0283V19.508H17.6569Z" fill="black"/>
<path fill-rule="evenodd" clip-rule="evenodd" d="M29.2533 16.7997C29.7712 16.4847 30.1797 16.0467 30.4785 15.4858C30.7775 14.9251 30.927 14.2911 30.927 13.5842C30.927 12.8851 30.7775 12.2531 30.4785 11.6884C30.1797 11.1235 29.7696 10.6819 29.2476 10.3629C28.7256 10.0441 28.1429 9.88461 27.5002 9.88461C26.857 9.88461 26.2747 10.0441 25.7527 10.3629C25.2307 10.6819 24.8202 11.1235 24.5215 11.6884C24.2228 12.2531 24.0733 12.8851 24.0733 13.5842C24.0733 14.2911 24.2228 14.9251 24.5215 15.4858C24.8202 16.0467 25.2288 16.4847 25.747 16.7997C26.2652 17.1148 26.8495 17.2722 27.5002 17.2722C28.1507 17.2722 28.735 17.1148 29.2533 16.7997ZM24.3399 19.0239C23.4056 18.4632 22.6738 17.7044 22.1443 16.7478C21.6148 15.7912 21.3501 14.7367 21.3501 13.5842C21.3501 12.4393 21.6148 11.3868 22.1443 10.4264C22.6738 9.46594 23.4056 8.70519 24.3399 8.14431C25.2742 7.58357 26.3237 7.30298 27.4887 7.30298C28.6612 7.30298 29.7164 7.58357 30.6545 8.14431C31.5926 8.70519 32.3264 9.46594 32.856 10.4264C33.3854 11.3868 33.6502 12.4393 33.6502 13.5842C33.6502 14.7367 33.3854 15.7932 32.856 16.7536C32.3264 17.7141 31.5907 18.4728 30.6488 19.0297C29.7071 19.5868 28.6499 19.8653 27.4774 19.8653C26.3201 19.8653 25.2742 19.5848 24.3399 19.0239Z" fill="black"/>
<path fill-rule="evenodd" clip-rule="evenodd" d="M35.813 19.5081V7.6604H38.4455V9.80409C38.7253 9.13556 39.1321 8.61122 39.6653 8.23092C40.1987 7.85047 40.8359 7.6604 41.5773 7.6604H42.8254V10.0576H41.7249C41.0968 10.0576 40.5447 10.2113 40.0682 10.5187C39.5917 10.826 39.2209 11.2754 38.9561 11.867C38.6912 12.4587 38.5589 13.1693 38.5589 13.9991V19.5081H35.813Z" fill="black"/>
<path fill-rule="evenodd" clip-rule="evenodd" d="M0 15.732H2.69774C2.8349 16.8931 3.818 17.6129 5.34972 17.6129C6.81293 17.6129 7.61297 16.9859 7.61297 16.0571C7.61297 15.3372 7.11012 14.9425 5.55552 14.6407L3.6122 14.2691C1.16603 13.8279 0.11442 12.6901 0.11442 10.9951C0.11442 8.7659 1.98894 7.18677 5.14406 7.18677C8.16173 7.18677 9.99064 8.64969 10.1736 11.1576H7.4987C7.33881 10.0661 6.46998 9.41594 4.96114 9.41594C3.52081 9.41594 2.78913 9.99655 2.78913 10.8093C2.78913 11.4362 3.22362 11.8078 4.82399 12.1097L6.76717 12.4578C9.14484 12.8992 10.288 13.9905 10.288 15.8248C10.288 18.1933 8.4133 19.8653 5.23545 19.8653C2.12625 19.8653 0.11442 18.2863 0 15.732Z" fill="black"/>
<path fill-rule="evenodd" clip-rule="evenodd" d="M0 2.39325H55V0H0V2.39325Z" fill="black"/>
<path fill-rule="evenodd" clip-rule="evenodd" d="M55.0001 7.66016L52.0726 7.67162L49.5292 14.142L49.067 16.0504L48.6051 14.142L46.0587 7.66016H43.1313L47.6043 19.0389L46.0512 23H48.9789L55.0001 7.66016Z" fill="black"/>
</svg>
